<svg width="24" height="24" viewBox="0 0 24 24" fill="none" xmlns="http://www.w3.org/2000/svg">
  <path d="M12 0C5.373 0 0 5.373 0 12s5.373 12 12 12 12-5.373 12-12S18.627 0 12 0zm5.568 7.34l-1.85 1.85C16.395 10.094 17 11.013 17 12.053v.894C17 17.49 14.49 20 9.947 20H9.053C4.51 20 2 17.49 2 12.947V12.053C2 7.51 4.51 5 9.053 5h.894c1.04 0 1.959.605 2.863 1.282l1.85-1.85C13.414 3.478 11.269 3 9.053 3C3.408 3 0 6.408 0 12.053v.894C0 18.592 3.408 22 9.053 22h.894C16.592 22 20 18.592 20 12.947V12.053c0-2.216-.478-4.361-1.432-5.607zM14.5 9.5a1.5 1.5 0 11-3 0 1.5 1.5 0 013 0z" fill="#6C757D"/>
  <path d="M12 4.5C7.857 4.5 4.5 7.857 4.5 12S7.857 19.5 12 19.5 19.5 16.143 19.5 12 16.143 4.5 12 4.5zm0 13.5c-3.59 0-6.5-2.91-6.5-6.5S8.41 5.5 12 5.5s6.5 2.91 6.5 6.5-2.91 6.5-6.5 6.5z" fill="#6C757D"/>
  <path d="M8.5 12c0-1.93 1.57-3.5 3.5-3.5s3.5 1.57 3.5 3.5-1.57 3.5-3.5 3.5-3.5-1.57-3.5-3.5zm7-6.5h-7v1h7v-1zm0 12h-7v1h7v-1z" fill="#6C757D"/>
</svg>